<svg
   xmlns="http://www.w3.org/2000/svg"
   width="512"
   height="512"
   version="1.1">
  <defs>
    <filter id="shadow">
      <feFlood
         flood-color="rgb(0,0,0)"
         flood-opacity="0.498039"
         result="flood" />
      <feComposite
         in="flood"
         in2="SourceGraphic"
         operator="in"
         result="composite1" />
      <feGaussianBlur
         in="composite1"
         result="blur"
         stdDeviation="5" />
      <feOffset
         id="feOffset64"
         dx="0"
         dy="5"
         result="offset" />
      <feComposite
         in="SourceGraphic"
         in2="offset"
         operator="over"
         result="composite2" />
    </filter>
    <radialGradient
       id="light"
       cx="92.102646"
       cy="-142.55206"
       fx="92.102646"
       fy="-142.55206"
       r="200"
       gradientUnits="userSpaceOnUse"
       gradientTransform="matrix(0.44680151,1.4716397,-1.2351659,0.37500616,-69.37842,-159.97382)">
      <stop
         style="stop-color:#fefffe;stop-opacity:0.27450982"
         offset="0" />
      <stop
         style="stop-color:#000000;stop-opacity:0.17647059"
         offset="1" />
    </radialGradient>
  </defs>
  <g transform="translate(0,215)">
    <rect
       width="480"
       height="480"
       x="16"
       y="-199"
       fill="#e2ff6e"
       filter="url(#shadow)" />
    <rect
       width="400"
       height="400"
       x="56"
       y="-159"
       fill="#457745" />
    <rect
       fill="url(#light)"
       width="400"
       height="400"
       x="56"
       y="-159" />
    <g
       fill="#e2ff6e"
       transform="matrix(1.1679985,0,0,1.1679985,-43.007616,-17.422918)">
      <path
         d="m 174.74609,106.5 q 8.25,0 13.5,-1.25 5.5,-1.5 8.75,-3.75 3.25,-2.5 4.5,-5.75 1.25,-3.25 1.25,-7.25 0,-8.5 -8,-14 -8,-5.75 -27.5,-12.25 -8.5,-3 -17,-6.75 -8.5,-4 -15.25,-9.75 -6.75,-6 -11,-14.25 -4.25,-8.5 -4.25,-20.5 0,-12 4.5,-21.5 4.5,-9.75 12.75,-16.5 8.25,-6.75 20,-10.25 11.75,-3.75 26.5,-3.75 17.5,0 30.25,3.75 12.75,3.75 21,8.25 l -11.25,30.75 q -7.25,-3.75 -16.25,-6.5 -8.75,-3 -21.25,-3 -14,0 -20.25,4 -6,3.75 -6,11.75 0,4.75 2.25,8 2.25,3.25 6.25,6 4.25,2.5 9.5,4.75 5.5,2 12,4.25 13.5,5 23.5,10 10,4.75 16.5,11.25 6.75,6.5 10,15.25 3.25,8.75 3.25,21.25 0,24.25 -17,37.75 -17,13.25 -51.25,13.25 -11.5,0 -20.75,-1.5 -9.25,-1.25 -16.5,-3.25 -7,-2 -12.25,-4.25 -5,-2.25 -8.5,-4.25 l 11,-31 q 7.75,4.25 19,7.75 11.5,3.25 28,3.25 z" />
      <path
         d="m 307.75391,52.25 q 5.5,-6 11.25,-12.5 6,-6.5 11.5,-12.75 5.5,-6.5 10.25,-12.25 5,-5.75 8.5,-10 h 44.25 q -13.25,15.25 -26,29.25 -12.5,13.75 -27.5,28.5 7.5,6.75 15.5,16.25 8,9.25 15.5,19.25 7.5,10 13.75,20 6.25,10 10.5,18.25 h -42.75 q -4,-6.5 -9.25,-14.25 -5,-8 -10.75,-15.75 -5.75,-8 -12.25,-15.25 -6.25,-7.25 -12.5,-12.25 v 57.5 h -37.25 v -188 l 37.25,-6 z" />
    </g>
  </g>
</svg>